<svg width="36" height="36" viewBox="0 0 36 36" fill="none" xmlns="http://www.w3.org/2000/svg">
<g filter="url(#filter0_d_1079_1921)">
<circle cx="18" cy="15" r="15" fill="black"/>
<path d="M9.75 23.25V10.4625H15.4104V8.35415L18 5.83331L20.5896 8.35415V14.2666H26.25V23.25H9.75ZM11.125 21.875H13.5542V19.4458H11.125V21.875ZM11.125 18.0708H13.5542V15.6416H11.125V18.0708ZM11.125 14.2666H13.5542V11.8375H11.125V14.2666ZM16.7854 21.875H19.2146V19.4458H16.7854V21.875ZM16.7854 18.0708H19.2146V15.6416H16.7854V18.0708ZM16.7854 14.2666H19.2146V11.8375H16.7854V14.2666ZM16.7854 10.4625H19.2146V8.03331H16.7854V10.4625ZM22.4458 21.875H24.875V19.4458H22.4458V21.875ZM22.4458 18.0708H24.875V15.6416H22.4458V18.0708Z" fill="white"/>
</g>
<defs>
<filter id="filter0_d_1079_1921" x="0" y="0" width="36" height="36" filterUnits="userSpaceOnUse" color-interpolation-filters="sRGB">
<feFlood flood-opacity="0" result="BackgroundImageFix"/>
<feColorMatrix in="SourceAlpha" type="matrix" values="0 0 0 0 0 0 0 0 0 0 0 0 0 0 0 0 0 0 127 0" result="hardAlpha"/>
<feOffset dy="3"/>
<feGaussianBlur stdDeviation="1.5"/>
<feComposite in2="hardAlpha" operator="out"/>
<feColorMatrix type="matrix" values="0 0 0 0 0 0 0 0 0 0 0 0 0 0 0 0 0 0 0.3 0"/>
<feBlend mode="normal" in2="BackgroundImageFix" result="effect1_dropShadow_1079_1921"/>
<feBlend mode="normal" in="SourceGraphic" in2="effect1_dropShadow_1079_1921" result="shape"/>
</filter>
</defs>
</svg>
