<svg width="36" height="36" viewBox="0 0 36 36" fill="none" xmlns="http://www.w3.org/2000/svg">
<g filter="url(#filter0_d_1079_1941)">
<circle cx="18" cy="15" r="15" fill="black"/>
<path d="M18.3015 25C17.8922 25 17.5438 24.8564 17.2563 24.5691C16.9688 24.2819 16.825 23.9331 16.825 23.5227H16V17.7512C16 17.5509 16.075 17.3756 16.225 17.2254C16.375 17.0751 16.55 17 16.75 17H23.9875V19.0908H25.3L27 21.3568V23.5227H26.1125C26.1125 23.9331 25.9692 24.2819 25.6827 24.5691C25.3962 24.8564 25.0483 25 24.639 25C24.2297 25 23.8812 24.8564 23.5938 24.5691C23.3063 24.2819 23.1625 23.9331 23.1625 23.5227H19.775C19.775 23.9317 19.6317 24.2801 19.3452 24.5681C19.0587 24.856 18.7108 25 18.3015 25ZM18.3 24.2488C18.5 24.2488 18.6708 24.1779 18.8125 24.036C18.9542 23.8941 19.025 23.723 19.025 23.5227C19.025 23.3224 18.9542 23.1513 18.8125 23.0094C18.6708 22.8675 18.5 22.7966 18.3 22.7966C18.1 22.7966 17.9292 22.8675 17.7875 23.0094C17.6458 23.1513 17.575 23.3224 17.575 23.5227C17.575 23.723 17.6458 23.8941 17.7875 24.036C17.9292 24.1779 18.1 24.2488 18.3 24.2488ZM16.75 22.7715H17.025C17.1667 22.5462 17.346 22.3667 17.563 22.2332C17.78 22.0996 18.0217 22.0329 18.288 22.0329C18.5543 22.0329 18.7979 22.1017 19.0187 22.2394C19.2396 22.3772 19.4208 22.5545 19.5625 22.7715H23.2375V17.7512H16.75V22.7715ZM24.6375 24.2488C24.8375 24.2488 25.0083 24.1779 25.15 24.036C25.2917 23.8941 25.3625 23.723 25.3625 23.5227C25.3625 23.3224 25.2917 23.1513 25.15 23.0094C25.0083 22.8675 24.8375 22.7966 24.6375 22.7966C24.4375 22.7966 24.2667 22.8675 24.125 23.0094C23.9833 23.1513 23.9125 23.3224 23.9125 23.5227C23.9125 23.723 23.9833 23.8941 24.125 24.036C24.2667 24.1779 24.4375 24.2488 24.6375 24.2488ZM23.9875 21.6948H26.3125L24.925 19.8419H23.9875V21.6948Z" fill="white"/>
<path fill-rule="evenodd" clip-rule="evenodd" d="M13.05 19.85H10.35V9.5L18 6.44L25.65 9.5V16.7H27V8.6L18 5L9 8.6V21.2H14.4V14H21.6V14.9H22.95V12.65H13.05V19.85Z" fill="white"/>
</g>
<defs>
<filter id="filter0_d_1079_1941" x="0" y="0" width="36" height="36" filterUnits="userSpaceOnUse" color-interpolation-filters="sRGB">
<feFlood flood-opacity="0" result="BackgroundImageFix"/>
<feColorMatrix in="SourceAlpha" type="matrix" values="0 0 0 0 0 0 0 0 0 0 0 0 0 0 0 0 0 0 127 0" result="hardAlpha"/>
<feOffset dy="3"/>
<feGaussianBlur stdDeviation="1.5"/>
<feComposite in2="hardAlpha" operator="out"/>
<feColorMatrix type="matrix" values="0 0 0 0 0 0 0 0 0 0 0 0 0 0 0 0 0 0 0.3 0"/>
<feBlend mode="normal" in2="BackgroundImageFix" result="effect1_dropShadow_1079_1941"/>
<feBlend mode="normal" in="SourceGraphic" in2="effect1_dropShadow_1079_1941" result="shape"/>
</filter>
</defs>
</svg>
